<svg width="132" height="34" viewBox="0 0 132 34" fill="none" xmlns="http://www.w3.org/2000/svg">
<path d="M34.6701 25.7627C33.7844 25.7758 32.9049 25.6129 32.0833 25.2836C31.3291 24.9586 30.6527 24.4783 30.099 23.8742C29.5052 23.2273 29.0495 22.4674 28.7595 21.6404C28.4463 20.7338 28.2929 19.7802 28.3059 18.8217C28.295 17.8264 28.468 16.8375 28.8162 15.9043C29.1431 15.052 29.6451 14.2768 30.2903 13.6282C30.8567 13.0652 31.5317 12.6218 32.2747 12.3246C33.1033 12.0168 33.9845 11.8732 34.8685 11.9018C35.6532 11.8901 36.435 11.9995 37.186 12.2259C37.8325 12.4221 38.4359 12.7377 38.9648 13.1561C39.4614 13.5592 39.8712 14.0577 40.1696 14.6218C40.4837 15.2147 40.6969 15.8552 40.8004 16.5174H37.59C37.4699 15.9829 37.1729 15.504 36.7466 15.1574C36.2423 14.7789 35.62 14.5892 34.989 14.6218C34.4853 14.6096 33.9863 14.721 33.5362 14.946C33.123 15.1588 32.7661 15.4654 32.4944 15.8409C32.2108 16.2474 32.002 16.7007 31.8778 17.1798C31.7377 17.7302 31.6686 18.2962 31.6723 18.864C31.6675 19.436 31.7463 20.0057 31.9062 20.5552C32.0425 21.041 32.2684 21.4974 32.5723 21.9011C32.8495 22.2752 33.2112 22.5794 33.6283 22.789C34.0684 23.006 34.5545 23.1147 35.0457 23.1061C35.4444 23.1131 35.841 23.0462 36.2151 22.9088C36.5379 22.7904 36.8358 22.6136 37.0939 22.3873C37.5623 21.9708 37.8642 21.4004 37.9443 20.7807V20.7384H35.4355V18.3214H41.013V25.4668H38.6884L38.5042 23.8672H38.4687C38.085 24.5025 37.5201 25.0102 36.8458 25.3258C36.1616 25.6285 35.4188 25.7776 34.6701 25.7627ZM45.9172 25.7627C45.4452 25.7991 44.971 25.7285 44.5303 25.5564C44.0897 25.3844 43.694 25.1152 43.373 24.7692C42.7735 24.0459 42.4677 23.126 42.5154 22.19V15.9396H45.5487V21.577C45.5215 22.0053 45.6469 22.4294 45.903 22.7749C46.0419 22.9213 46.2121 23.0347 46.401 23.1067C46.59 23.1787 46.7928 23.2074 46.9944 23.1907C47.2269 23.2016 47.4587 23.1596 47.6724 23.068C47.8861 22.9765 48.076 22.8377 48.2276 22.6622C48.5421 22.2611 48.7006 21.7607 48.6741 21.2528V15.9396H51.7286V25.4668H48.8371V24.297H48.7804C48.4758 24.7331 48.0822 25.1005 47.6252 25.3752C47.1093 25.6408 46.5332 25.7694 45.9527 25.7487L45.9172 25.7627ZM53.4933 12.0356H56.5478V14.6218H53.4933V12.0356ZM53.4933 15.9396H56.5478V25.4668H53.4933V15.9396ZM62.0473 25.7627C61.4746 25.7662 60.9074 25.651 60.3819 25.4245C59.8714 25.192 59.4189 24.8504 59.0566 24.4239C58.663 23.9582 58.3667 23.4192 58.1849 22.8383C57.9733 22.1537 57.8705 21.4405 57.8801 20.7243C57.8711 20.0313 57.974 19.3413 58.1849 18.6807C58.3687 18.1001 58.6622 17.5596 59.0495 17.0882C59.4104 16.6431 59.8652 16.2822 60.3819 16.0312C60.9126 15.7788 61.4945 15.651 62.0827 15.6577C62.6518 15.6336 63.2162 15.7678 63.7128 16.0453C64.1225 16.2987 64.4787 16.629 64.7616 17.0177H64.8183V12.0356H67.8658V25.4668H64.9105V24.1631C64.6295 24.6599 64.2163 25.07 63.7162 25.3485C63.216 25.6269 62.6484 25.763 62.0757 25.7416L62.0473 25.7627ZM62.8623 23.3457C63.1538 23.3573 63.4434 23.2948 63.7039 23.1641C63.9643 23.0334 64.1869 22.8388 64.3506 22.5987C64.7262 22.0314 64.9122 21.3606 64.8821 20.682C64.8837 20.3099 64.8433 19.9388 64.7616 19.5757C64.6946 19.263 64.567 18.9662 64.386 18.7019C64.2241 18.4698 64.0138 18.2751 63.7695 18.1311C63.5014 17.9896 63.2012 17.9192 62.8978 17.9267C62.6161 17.9199 62.3375 17.9858 62.0891 18.1179C61.8407 18.2501 61.6309 18.444 61.4803 18.6807C61.1113 19.267 60.924 19.9483 60.9417 20.6397C60.9084 21.3316 61.081 22.0179 61.4378 22.6128C61.5923 22.8424 61.8042 23.0281 62.0527 23.1517C62.3012 23.2752 62.5778 23.3324 62.8552 23.3175L62.8623 23.3457ZM74.0811 25.6993C73.3545 25.7081 72.6329 25.579 71.955 25.3188C71.3387 25.1002 70.7759 24.7544 70.3037 24.3041C69.862 23.842 69.5196 23.2954 69.2973 22.6974C69.052 22.0538 68.9294 21.3703 68.9359 20.682C68.9305 20.0053 69.0531 19.3336 69.2973 18.7019C69.5171 18.1079 69.8578 17.5655 70.298 17.1083C70.7382 16.6512 71.2685 16.2893 71.8558 16.0453C72.4911 15.7826 73.1734 15.6507 73.8614 15.6577C74.4902 15.6471 75.1154 15.7547 75.704 15.9748C76.2255 16.179 76.7056 16.475 77.1214 16.8486C77.7097 17.3936 78.1508 18.077 78.4042 18.8358C78.6925 19.689 78.8292 20.5855 78.8081 21.4854H71.9195C71.9936 22.055 72.2408 22.5885 72.6282 23.0145C72.8219 23.2056 73.054 23.3539 73.3092 23.4498C73.5644 23.5457 73.8371 23.5871 74.1094 23.5712C74.4579 23.5844 74.8027 23.4962 75.1016 23.3175C75.3655 23.146 75.5726 22.9009 75.6969 22.6128H78.6735C78.5673 23.0577 78.3773 23.4785 78.1136 23.8531C77.8257 24.2516 77.468 24.5953 77.0576 24.8678C76.6494 25.1546 76.197 25.3736 75.7182 25.5161C75.1797 25.6724 74.6208 25.7484 74.0598 25.7416L74.0811 25.6993ZM75.7465 19.6743C75.712 19.169 75.5072 18.6899 75.1654 18.3143C75.0058 18.1507 74.8138 18.0218 74.6016 17.9357C74.3893 17.8495 74.1614 17.8081 73.9323 17.814C73.685 17.7979 73.4371 17.8341 73.205 17.9204C72.9728 18.0066 72.7618 18.1409 72.5857 18.3143C72.2517 18.6985 72.0375 19.1711 71.9691 19.6743H75.7465ZM79.9562 12.0286H83.0107V17.1164H83.0604C83.3764 16.6865 83.7766 16.3246 84.2368 16.0523C84.7476 15.7787 85.3224 15.6449 85.9023 15.6647C86.3891 15.6542 86.8725 15.7479 87.3197 15.9396C87.7174 16.1107 88.0747 16.3627 88.3685 16.6795C88.6587 17.0129 88.8781 17.4012 89.0135 17.821C89.1717 18.2934 89.2484 18.789 89.2402 19.2868V25.4809H86.1928V19.8857C86.2134 19.4462 86.0807 19.0131 85.8172 18.6596C85.6791 18.4998 85.5052 18.3745 85.3095 18.2937C85.1138 18.2129 84.9017 18.1789 84.6904 18.1945C84.4565 18.1854 84.2236 18.231 84.0107 18.3277C83.7977 18.4244 83.6106 18.5695 83.4643 18.7512C83.146 19.1669 82.9854 19.681 83.0107 20.2028V25.4668H79.9562V12.0286ZM95.3209 25.7627C94.594 25.7753 93.8717 25.646 93.1948 25.3822C92.5976 25.1472 92.0554 24.7926 91.6019 24.3404C91.1484 23.8883 90.7932 23.3482 90.5584 22.7538C90.0764 21.4626 90.0764 20.0423 90.5584 18.7512C90.7854 18.1391 91.1405 17.5819 91.6002 17.1164C92.0593 16.6547 92.6094 16.2924 93.2161 16.0523C94.5729 15.5451 96.0689 15.5451 97.4258 16.0523C98.0312 16.2907 98.5794 16.6532 99.0345 17.1164C99.4841 17.5777 99.836 18.124 100.069 18.723C100.558 20.0226 100.558 21.4542 100.069 22.7538C99.8333 23.3493 99.4817 23.8929 99.0345 24.3534C98.579 24.8143 98.0308 25.1745 97.4258 25.4104C96.7489 25.6742 96.0266 25.8034 95.2997 25.7909L95.3209 25.7627ZM95.2997 23.6346C95.6012 23.6494 95.9013 23.5841 96.1691 23.4454C96.4369 23.3067 96.6627 23.0996 96.8234 22.8454C97.1975 22.2052 97.3772 21.4709 97.3407 20.7314C97.3732 19.9922 97.1938 19.259 96.8234 18.6173C96.6642 18.3629 96.4399 18.1551 96.1734 18.0152C95.9069 17.8753 95.6078 17.8083 95.3067 17.821C95.0053 17.806 94.7054 17.8721 94.4385 18.0122C94.1716 18.1523 93.9477 18.3614 93.7901 18.6173C93.4221 19.2597 93.2452 19.9929 93.2799 20.7314C93.2412 21.4702 93.4184 22.2044 93.7901 22.8454C93.948 23.1006 94.1722 23.3086 94.4392 23.4475C94.7062 23.5865 95.0059 23.6511 95.3067 23.6346H95.2997ZM104.754 25.7487C104.287 25.7824 103.819 25.712 103.384 25.5425C102.949 25.373 102.557 25.1088 102.238 24.7692C101.644 24.0433 101.341 23.1246 101.387 22.19V15.9396H104.421V21.577C104.39 22.0056 104.516 22.4308 104.775 22.7749C104.912 22.922 105.081 23.036 105.269 23.108C105.457 23.1801 105.659 23.2084 105.859 23.1907C106.092 23.2021 106.324 23.1604 106.538 23.0688C106.751 22.9772 106.941 22.8381 107.092 22.6622C107.414 22.2646 107.576 21.7623 107.546 21.2528V15.9396H110.593V25.4668H107.674V24.297H107.617C107.31 24.7361 106.911 25.1039 106.448 25.3752C105.932 25.6408 105.356 25.7694 104.775 25.7487H104.754ZM116.341 25.7487C115.153 25.8257 113.971 25.5166 112.975 24.8678C112.575 24.5865 112.248 24.2152 112.02 23.784C111.792 23.3529 111.67 22.8743 111.664 22.3873H114.541C114.557 22.5906 114.614 22.7887 114.707 22.9702C114.801 23.1516 114.93 23.3128 115.087 23.4444C115.439 23.7014 115.87 23.8285 116.306 23.8037C116.685 23.8199 117.062 23.7348 117.397 23.5571C117.523 23.4882 117.628 23.3859 117.699 23.2615C117.77 23.1371 117.806 22.9955 117.801 22.8524C117.803 22.7573 117.786 22.6627 117.751 22.5743C117.716 22.4859 117.663 22.4055 117.595 22.338C117.442 22.2119 117.266 22.1141 117.078 22.0491C116.827 21.9642 116.568 21.9029 116.306 21.8659C116.008 21.8236 115.703 21.7672 115.398 21.7038C114.98 21.6333 114.569 21.5417 114.158 21.436C113.765 21.3384 113.389 21.179 113.046 20.9639C112.714 20.7528 112.441 20.462 112.252 20.1183C112.039 19.6947 111.936 19.2245 111.954 18.7512C111.944 18.2888 112.056 17.8319 112.28 17.4264C112.485 17.0277 112.778 16.6806 113.138 16.4117C113.541 16.1468 113.987 15.9514 114.456 15.8339C114.98 15.7029 115.518 15.6366 116.058 15.6365C117.171 15.5661 118.278 15.8634 119.204 16.4822C119.558 16.7426 119.85 17.0782 120.057 17.4646C120.264 17.851 120.382 18.2785 120.402 18.716H117.567C117.561 18.5392 117.514 18.3663 117.429 18.2109C117.344 18.0555 117.224 17.922 117.078 17.821C116.76 17.6545 116.403 17.5743 116.043 17.5885C115.714 17.5777 115.387 17.6504 115.094 17.7999C114.973 17.862 114.872 17.9576 114.804 18.0751C114.736 18.1925 114.704 18.327 114.711 18.4623C114.708 18.54 114.723 18.6174 114.755 18.6883C114.787 18.7592 114.835 18.8218 114.895 18.871C115.05 18.9833 115.222 19.0691 115.406 19.1247C115.638 19.1993 115.874 19.2582 116.114 19.3009L116.986 19.4488C117.411 19.5264 117.836 19.618 118.269 19.7166C118.686 19.8176 119.084 19.9866 119.445 20.2169C119.805 20.4426 120.104 20.7522 120.317 21.1189C120.677 21.755 120.785 22.5023 120.618 23.2133C120.452 23.9243 120.023 24.5473 119.417 24.9594C118.984 25.2395 118.504 25.44 117.999 25.5513C117.43 25.6936 116.844 25.7623 116.256 25.7557L116.341 25.7487ZM126.568 25.7557C125.841 25.7655 125.119 25.6363 124.442 25.3752C123.835 25.1385 123.287 24.7757 122.833 24.3111C122.389 23.8493 122.044 23.3027 121.819 22.7044C121.58 22.0595 121.46 21.3766 121.465 20.6891C121.461 20.0131 121.581 19.342 121.819 18.7089C122.042 18.1154 122.384 17.5734 122.825 17.1165C123.267 16.6596 123.797 16.2974 124.385 16.0523C125.02 15.7896 125.702 15.6578 126.39 15.6647C127.019 15.6549 127.644 15.7624 128.233 15.9818C128.754 16.1877 129.234 16.4835 129.651 16.8556C130.239 17.4007 130.68 18.084 130.933 18.8428C131.218 19.6968 131.355 20.5928 131.337 21.4924H124.519C124.583 22.058 124.818 22.5911 125.193 23.0216C125.386 23.2126 125.618 23.3609 125.874 23.4568C126.129 23.5528 126.402 23.5941 126.674 23.5782C127.02 23.5913 127.363 23.5031 127.659 23.3246C127.925 23.1535 128.134 22.9084 128.261 22.6199H131.252C131.146 23.0647 130.956 23.4855 130.692 23.8601C130.399 24.2548 130.04 24.5958 129.629 24.8678C129.22 25.1533 128.768 25.3721 128.29 25.5161C127.751 25.6712 127.192 25.7472 126.631 25.7416L126.568 25.7557ZM128.318 19.6743C128.284 19.169 128.079 18.6899 127.737 18.3143C127.577 18.152 127.385 18.0244 127.172 17.9395C126.96 17.8546 126.733 17.8143 126.504 17.821C126.257 17.8049 126.009 17.8412 125.777 17.9274C125.544 18.0137 125.333 18.1479 125.157 18.3214C124.824 18.7067 124.608 19.1784 124.534 19.6814L128.318 19.6743Z" fill="white"/>
<path d="M13.6582 0.5V23.8037L27.074 33.5H27.1094L13.6582 0.5Z" fill="#93D500"/>
<path d="M0.219727 33.4648H0.262249L13.6567 23.7614V0.5L0.219727 33.4648Z" fill="white"/>
</svg>
